<svg version="1.1" xmlns="http://www.w3.org/2000/svg" viewBox="0 0 170.32681274414062 105.62094116210938" width="170.32681274414062" height="105.62094116210938">
  <rect x="0" y="0" width="170.32681274414062" height="105.62094116210938" fill="none"></rect><g stroke-linecap="round" transform="translate(10 10) rotate(0 75.16340637207031 42.81047058105469)"><path d="M125.92 10.84 C135.06 14.72, 142.13 23.36, 146.29 29.25 C150.46 35.14, 152.13 39.87, 150.92 46.17 C149.7 52.48, 145.83 61.03, 139.01 67.09 C132.2 73.16, 120.82 79.26, 110.01 82.56 C99.2 85.87, 85.75 86.9, 74.17 86.92 C62.58 86.94, 50.48 86.09, 40.5 82.69 C30.51 79.29, 20.93 72.19, 14.24 66.51 C7.55 60.82, 1.83 54.73, 0.35 48.59 C-1.13 42.46, 1.09 35.83, 5.38 29.71 C9.67 23.58, 17.48 16.32, 26.1 11.84 C34.71 7.36, 45.92 4.28, 57.06 2.83 C68.2 1.39, 77.61 -1.92, 92.95 3.17 C108.29 8.26, 140.38 24.29, 149.11 33.36 C157.84 42.44, 146.53 57.29, 145.33 57.61 M104.04 3.79 C114.6 6.08, 123.26 11.49, 130.59 16.08 C137.93 20.67, 144.96 25.45, 148.03 31.32 C151.1 37.18, 151.64 44.15, 149.03 51.27 C146.41 58.39, 140.13 68.9, 132.36 74.05 C124.6 79.19, 113.68 79.92, 102.44 82.12 C91.2 84.32, 76.87 88.27, 64.9 87.27 C52.92 86.27, 39.7 80.62, 30.6 76.12 C21.49 71.62, 15.32 65.48, 10.27 60.26 C5.21 55.04, 0.66 50.92, 0.27 44.79 C-0.12 38.66, 2.53 29.83, 7.91 23.48 C13.29 17.14, 22.44 10.9, 32.54 6.72 C42.65 2.54, 57.28 -0.49, 68.54 -1.59 C79.81 -2.68, 94.94 -0.41, 100.15 0.16 C105.37 0.73, 99.73 0.23, 99.84 1.83" stroke="#fab00590" stroke-width="7" fill="none"></path></g></svg>