<svg version="1.1" xmlns="http://www.w3.org/2000/svg" viewBox="0 0 170.32681274414062 105.62094116210938" width="170.32681274414062" height="105.62094116210938"> 
 <rect x="0" y="0" width="170.32681274414062" height="105.62094116210938" fill="none"></rect><g stroke-linecap="round" transform="translate(10 10) rotate(0 75.16340637207031 42.81047058105469)"><path d="M55.55 2.51 C65.75 0.42, 78.58 0.34, 89.66 1.47 C100.75 2.59, 112.81 5.13, 122.05 9.25 C131.29 13.36, 140.49 19.95, 145.11 26.14 C149.73 32.34, 150.88 39.64, 149.77 46.42 C148.66 53.21, 144.71 61.19, 138.44 66.84 C132.17 72.49, 122.27 77.35, 112.16 80.34 C102.05 83.33, 89.57 84.46, 77.81 84.77 C66.05 85.09, 52.05 84.85, 41.61 82.23 C31.17 79.62, 22.02 74.39, 15.15 69.06 C8.27 63.74, 2.23 57.03, 0.36 50.26 C-1.52 43.49, 0.08 34.9, 3.91 28.45 C7.75 21.99, 12.63 16.29, 23.36 11.54 C34.08 6.79, 58.71 1.63, 68.27 -0.07 C77.84 -1.76, 80.86 0.67, 80.76 1.39 M97.67 0.56 C108.5 1.81, 118.54 7.09, 126.76 12.1 C134.97 17.11, 143.31 24.45, 146.95 30.63 C150.6 36.81, 150.68 42.71, 148.64 49.16 C146.6 55.61, 141.71 63.98, 134.73 69.31 C127.75 74.64, 117.61 78.3, 106.78 81.16 C95.95 84.01, 81.3 86.46, 69.73 86.45 C58.17 86.44, 47.01 84.57, 37.4 81.09 C27.79 77.6, 18.53 71.67, 12.1 65.55 C5.67 59.43, -0.22 50.85, -1.16 44.36 C-2.1 37.87, 1.76 32.39, 6.45 26.61 C11.14 20.83, 17.64 14.04, 27 9.69 C36.36 5.34, 50.85 1.72, 62.61 0.49 C74.38 -0.74, 92.14 1.89, 97.59 2.32 C103.03 2.75, 95.91 2.54, 95.27 3.06" stroke="#7950f260" stroke-width="8" fill="none"></path></g></svg>